<?xml version="1.0"?>
<svg width="16" height="16" xmlns="http://www.w3.org/2000/svg" xmlns:svg="http://www.w3.org/2000/svg" class="bi bi-activity">
 <g class="layer">
  <title>Layer 1</title>
  <path d="m6,2a0.5,0.5 0 0 1 0.47,0.33l3.53,9.71l1.53,-4.21a0.5,0.5 0 0 1 0.47,-0.33l3.5,0a0.5,0.5 0 0 1 0,1l-3.15,0l-1.88,5.17a0.5,0.5 0 0 1 -0.94,0l-3.53,-9.71l-1.53,4.21a0.5,0.5 0 0 1 -0.47,0.33l-3.5,0a0.5,0.5 0 0 1 0,-1l3.15,0l1.88,-5.17a0.5,0.5 0 0 1 0.47,-0.33" fill="#ff8899" fill-rule="evenodd" id="svg_1"/>
 </g>
</svg>