<?xml version="1.0"?>
<svg width="16" height="16" xmlns="http://www.w3.org/2000/svg" xmlns:svg="http://www.w3.org/2000/svg" class="bi bi-car-front">
 <g class="layer">
  <title>Layer 1</title>
  <path d="m4,9a1,1 0 1 1 -2,0a1,1 0 0 1 2,0m10,0a1,1 0 1 1 -2,0a1,1 0 0 1 2,0m-8,-1a1,1 0 0 0 0,2l4,0a1,1 0 1 0 0,-2l-4,0zm-1.14,-3.72l-0.95,1.91a0.51,0.51 0 0 0 0.49,0.73c0.91,-0.07 2.35,-0.17 3.6,-0.17c1.25,0 2.69,0.1 3.6,0.17a0.51,0.51 0 0 0 0.49,-0.73l-0.95,-1.91a0.5,0.5 0 0 0 -0.45,-0.28l-5.38,0a0.5,0.5 0 0 0 -0.45,0.28" fill="#ff8899" id="svg_1"/>
  <path d="m2.52,3.52a2.5,2.5 0 0 1 2.3,-1.52l6.36,0c1,0 1.91,0.6 2.3,1.52l0.79,1.84c0.08,0.18 0.21,0.32 0.38,0.41c0.5,0.25 0.86,0.71 0.97,1.26l0.33,1.68c0.04,0.16 0.05,0.32 0.05,0.49l0,0.41c0,0.82 -0.39,1.54 -1,2l0,1.89a0.5,0.5 0 0 1 -0.5,0.5l-2,0a0.5,0.5 0 0 1 -0.5,-0.5l0,-1.34c-1.29,0.05 -2.74,0.09 -4,0.09s-2.71,-0.04 -4,-0.09l0,1.34a0.5,0.5 0 0 1 -0.5,0.5l-2,0a0.5,0.5 0 0 1 -0.5,-0.5l0,-1.89c-0.61,-0.46 -1,-1.18 -1,-2l0,-0.41a2.5,2.5 0 0 1 0.05,-0.49l0.34,-1.68c0.11,-0.55 0.46,-1.01 0.96,-1.26a0.81,0.81 0 0 0 0.38,-0.41l0.79,-1.84zm2.3,-0.52a1.5,1.5 0 0 0 -1.38,0.91l-0.79,1.85a1.8,1.8 0 0 1 -0.85,0.9a0.81,0.81 0 0 0 -0.43,0.56l-0.34,1.68a1.5,1.5 0 0 0 -0.03,0.3l0,0.41c0,0.8 0.62,1.45 1.41,1.49c1.55,0.07 3.78,0.15 5.59,0.15c1.81,0 4.04,-0.08 5.59,-0.15a1.48,1.48 0 0 0 1.41,-1.49l0,-0.41c0,-0.1 -0.01,-0.2 -0.03,-0.3l-0.33,-1.68a0.81,0.81 0 0 0 -0.43,-0.56a1.81,1.81 0 0 1 -0.86,-0.9l-0.79,-1.85a1.5,1.5 0 0 0 -1.38,-0.91l-6.36,0z" fill="#ff8899" id="svg_2" transform="matrix(1 0 0 1 0 0)"/>
 </g>
</svg>