<?xml version="1.0"?>
<svg width="16" height="16" xmlns="http://www.w3.org/2000/svg" xmlns:svg="http://www.w3.org/2000/svg" class="bi bi-file-earmark-text">
 <g class="layer">
  <title>Layer 1</title>
  <path d="m5.5,7a0.5,0.5 0 0 0 0,1l5,0a0.5,0.5 0 0 0 0,-1l-5,0zm-0.5,2.5a0.5,0.5 0 0 1 0.5,-0.5l5,0a0.5,0.5 0 0 1 0,1l-5,0a0.5,0.5 0 0 1 -0.5,-0.5m0,2a0.5,0.5 0 0 1 0.5,-0.5l2,0a0.5,0.5 0 0 1 0,1l-2,0a0.5,0.5 0 0 1 -0.5,-0.5" fill="#77bbdd" id="svg_1"/>
  <path d="m9.5,0l-5.5,0a2,2 0 0 0 -2,2l0,12a2,2 0 0 0 2,2l8,0a2,2 0 0 0 2,-2l0,-9.5l-4.5,-4.5zm0,1l0,2a1.5,1.5 0 0 0 1.5,1.5l2,0l0,9.5a1,1 0 0 1 -1,1l-8,0a1,1 0 0 1 -1,-1l0,-12a1,1 0 0 1 1,-1l5.5,0z" fill="#77bbdd" id="svg_2" transform="matrix(1 0 0 1 0 0)"/>
 </g>
</svg>