<?xml version="1.0"?>
<svg width="16" height="16" xmlns="http://www.w3.org/2000/svg" xmlns:svg="http://www.w3.org/2000/svg" class="bi bi-archive">
 <g class="layer">
  <title>Layer 1</title>
  <path d="m0,2a1,1 0 0 1 1,-1l14,0a1,1 0 0 1 1,1l0,2a1,1 0 0 1 -1,1l0,7.5a2.5,2.5 0 0 1 -2.5,2.5l-9,0a2.5,2.5 0 0 1 -2.5,-2.5l0,-7.5a1,1 0 0 1 -1,-1l0,-2zm2,3l0,7.5a1.5,1.5 0 0 0 1.5,1.5l9,0a1.5,1.5 0 0 0 1.5,-1.5l0,-7.5l-12,0zm13,-3l-14,0l0,2l14,0l0,-2zm-10,5.5a0.5,0.5 0 0 1 0.5,-0.5l5,0a0.5,0.5 0 0 1 0,1l-5,0a0.5,0.5 0 0 1 -0.5,-0.5" fill="#7777aa" id="svg_1"/>
 </g>
</svg>