<?xml version="1.0"?>
<svg width="16" height="16" xmlns="http://www.w3.org/2000/svg" xmlns:svg="http://www.w3.org/2000/svg" class="bi bi-bookmark-heart">
 <g class="layer">
  <title>Layer 1</title>
  <path d="m8.06,4.41c1.39,-1.42 4.85,1.07 0,4.28c-4.85,-3.21 -1.39,-5.7 0,-4.28z" fill="#77dd77" fill-rule="evenodd" id="svg_1"/>
  <path d="m2,2a2,2 0 0 1 2,-2l8,0a2,2 0 0 1 2,2l0,13.5a0.5,0.5 0 0 1 -0.78,0.42l-5.22,-2.82l-5.22,2.82a0.5,0.5 0 0 1 -0.78,-0.42l0,-13.5zm2,-1a1,1 0 0 0 -1,1l0,12.57l4.72,-2.49a0.5,0.5 0 0 1 0.56,0l4.72,2.49l0,-12.57a1,1 0 0 0 -1,-1l-8,0z" fill="#77dd77" id="svg_2" transform="matrix(1 0 0 1 0 0)"/>
 </g>
</svg>