<?xml version="1.0"?>
<svg width="16" height="16" xmlns="http://www.w3.org/2000/svg" xmlns:svg="http://www.w3.org/2000/svg" class="bi bi-hospital">
 <g class="layer">
  <title>Layer 1</title>
  <path d="m8.5,5.03l0,1.1l0.95,-0.55l0.5,0.87l-0.95,0.55l0.95,0.55l-0.5,0.87l-0.95,-0.55l0,1.1l-1,0l0,-1.1l-0.95,0.55l-0.5,-0.87l0.95,-0.55l-0.95,-0.55l0.5,-0.87l0.95,0.55l0,-1.1l1,0zm4.75,3.97a0.25,0.25 0 0 0 -0.25,0.25l0,0.5c0,0.14 0.11,0.25 0.25,0.25l0.5,0a0.25,0.25 0 0 0 0.25,-0.25l0,-0.5a0.25,0.25 0 0 0 -0.25,-0.25l-0.5,0zm-0.25,2.25a0.25,0.25 0 0 1 0.25,-0.25l0.5,0a0.25,0.25 0 0 1 0.25,0.25l0,0.5a0.25,0.25 0 0 1 -0.25,0.25l-0.5,0a0.25,0.25 0 0 1 -0.25,-0.25l0,-0.5zm0.25,1.75a0.25,0.25 0 0 0 -0.25,0.25l0,0.5c0,0.14 0.11,0.25 0.25,0.25l0.5,0a0.25,0.25 0 0 0 0.25,-0.25l0,-0.5a0.25,0.25 0 0 0 -0.25,-0.25l-0.5,0zm-11,-4a0.25,0.25 0 0 0 -0.25,0.25l0,0.5c0,0.14 0.11,0.25 0.25,0.25l0.5,0a0.25,0.25 0 0 0 0.25,-0.25l0,-0.5a0.25,0.25 0 0 0 -0.25,-0.25l-0.5,0zm0,2a0.25,0.25 0 0 0 -0.25,0.25l0,0.5c0,0.14 0.11,0.25 0.25,0.25l0.5,0a0.25,0.25 0 0 0 0.25,-0.25l0,-0.5a0.25,0.25 0 0 0 -0.25,-0.25l-0.5,0zm-0.25,2.25a0.25,0.25 0 0 1 0.25,-0.25l0.5,0a0.25,0.25 0 0 1 0.25,0.25l0,0.5a0.25,0.25 0 0 1 -0.25,0.25l-0.5,0a0.25,0.25 0 0 1 -0.25,-0.25l0,-0.5z" fill="#77bbdd" id="svg_1"/>
  <path d="m5,1a1,1 0 0 1 1,-1l4,0a1,1 0 0 1 1,1l0,1a1,1 0 0 1 1,1l0,4l3,0a1,1 0 0 1 1,1l0,7a1,1 0 0 1 -1,1l-14,0a1,1 0 0 1 -1,-1l0,-7a1,1 0 0 1 1,-1l3,0l0,-4a1,1 0 0 1 1,-1l0,-1zm2,14l2,0l0,-3l-2,0l0,3zm3,0l1,0l0,-12l-6,0l0,12l1,0l0,-3a1,1 0 0 1 1,-1l2,0a1,1 0 0 1 1,1l0,3zm0,-14l-4,0l0,1l4,0l0,-1zm2,7l0,7l3,0l0,-7l-3,0zm-8,7l0,-7l-3,0l0,7l3,0z" fill="#77bbdd" id="svg_2" transform="matrix(1 0 0 1 0 0)"/>
 </g>
</svg>