<?xml version="1.0"?>
<svg width="16" height="16" xmlns="http://www.w3.org/2000/svg" xmlns:svg="http://www.w3.org/2000/svg" class="bi bi-book">
 <g class="layer">
  <title>Layer 1</title>
  <path d="m1,2.83c0.89,-0.37 2.15,-0.77 3.39,-0.89c1.33,-0.14 2.46,0.06 3.11,0.75l0,9.74c-0.94,-0.53 -2.12,-0.6 -3.21,-0.49c-1.18,0.12 -2.37,0.46 -3.29,0.81l0,-9.92zm7.5,-0.14c0.65,-0.69 1.78,-0.89 3.11,-0.75c1.24,0.12 2.51,0.52 3.39,0.89l0,9.92c-0.92,-0.35 -2.11,-0.69 -3.29,-0.81c-1.09,-0.11 -2.27,-0.04 -3.21,0.49l0,-9.74zm-0.5,-0.91c-0.99,-0.84 -2.41,-0.97 -3.71,-0.84c-1.52,0.15 -3.04,0.67 -4,1.1a0.5,0.5 0 0 0 -0.29,0.46l0,11a0.5,0.5 0 0 0 0.71,0.46c0.88,-0.41 2.3,-0.89 3.68,-1.02c1.41,-0.15 2.59,0.08 3.22,0.87a0.5,0.5 0 0 0 0.78,0c0.63,-0.79 1.81,-1.02 3.22,-0.87c1.38,0.13 2.8,0.61 3.68,1.02a0.5,0.5 0 0 0 0.71,-0.46l0,-11a0.5,0.5 0 0 0 -0.29,-0.46c-0.95,-0.43 -2.48,-0.95 -4,-1.1c-1.3,-0.13 -2.73,0 -3.71,0.84" fill="#77dd77" id="svg_1"/>
 </g>
</svg>